<svg width="168" height="60" viewBox="0 0 168 60" fill="none" xmlns="http://www.w3.org/2000/svg">
<g id="logo-wide 1" clip-path="url(#clip0_0_5187)">
<path id="Vector" d="M167.065 42.6273L163.544 13.7383C162.597 5.95919 155.881 0.092041 147.922 0.092041H114.302C106.343 0.092041 99.6272 5.95919 98.6809 13.7383L95.1642 42.6273C94.6288 47.0214 96.0308 51.4407 99.017 54.7497C101.998 58.0623 106.289 59.9586 110.785 59.9586H151.443C155.935 59.9586 160.226 58.0623 163.211 54.7497C166.192 51.4407 167.599 47.0214 167.064 42.6273H167.065ZM157.421 49.7295C155.824 51.5016 153.619 52.4763 151.215 52.4763H111.013C108.607 52.4763 106.401 51.5016 104.807 49.7295C103.21 47.9577 102.49 45.6873 102.776 43.3353L106.252 14.7693C106.751 10.6696 110.293 7.57454 114.489 7.57454H147.733C151.93 7.57454 155.472 10.6708 155.97 14.7693L159.451 43.3353C159.737 45.6873 159.014 47.9577 157.419 49.7295H157.421Z" fill="#FF5028"/>
<path id="Vector_2" d="M131.137 16.7772H131.066C131.047 16.7772 131.028 16.7772 131.008 16.7772C124.625 16.807 119.893 22.791 121.479 28.8776C122.319 32.0995 124.612 36.1173 129.571 42.5436C130.341 43.5406 131.875 43.5151 132.601 42.4864C135.063 38.9932 139.839 32.0269 140.621 29.4829C142.476 23.4526 138.202 17.1179 131.808 16.7926C131.61 16.7827 131.412 16.7772 131.208 16.7772H131.136" fill="#FF5028"/>
<path id="Vector_3" d="M9.23777 31.4631C8.22975 31.4631 7.4043 32.2758 7.4043 33.2682C7.4043 34.2606 8.22975 35.0733 9.23777 35.0733C10.2458 35.0733 11.0712 34.2903 11.0712 33.2682C11.0712 32.2461 10.2458 31.4631 9.23777 31.4631Z" fill="#2D2D2D"/>
<path id="Vector_4" d="M13.6383 31.4631C12.5989 31.4631 11.7734 32.2758 11.7734 33.2682C11.7734 34.3212 12.5989 35.0733 13.6383 35.0733C14.6777 35.0733 15.4415 34.2606 15.4415 33.2682C15.4415 32.2758 14.6474 31.4631 13.6383 31.4631Z" fill="#2D2D2D"/>
<path id="Vector_5" d="M77.2738 14.8609C73.8511 14.8609 71.0698 17.2977 70.0003 21.781C69.4202 23.1648 63.4651 23.4063 62.3639 23.4063C60.3469 23.4063 59.1551 23.2255 58.4831 22.6841H60.2863L60.6839 17.6891H57.4136C55.4579 17.6891 54.8465 17.5689 52.4014 16.3351C50.7202 15.4927 48.8868 14.1993 45.9523 14.1993C42.8657 14.1993 40.5125 15.8841 39.7487 17.0275L41.1845 20.3377C42.0401 19.7962 43.4157 19.0134 45.4629 19.0134C47.7556 19.0134 49.5892 19.7951 51.2702 20.4876C51.5445 20.6078 51.79 20.728 52.034 20.8184C46.3803 23.3159 42.3763 23.4063 38.9836 23.4063H37.0414L36.8209 23.4956L36.7637 23.4791L37.0414 23.4063H31.736C29.9933 23.4063 28.8329 22.9553 28.8329 20.9088V7.53711H24.7684V17.7773H13.5469V22.4415H18.4671C18.1009 23.7349 15.8082 25.0294 11.4077 25.0294C7.0071 25.0294 4.71443 23.2839 4.71443 19.643C4.71443 17.9879 5.26437 15.5511 6.05958 13.6854L2.75889 12.5122C1.68927 14.7396 0.771973 17.6274 0.771973 20.7269C0.771973 26.3239 4.40868 30.085 10.7961 30.085C17.9788 30.085 21.6458 26.5951 21.676 22.834H24.7841C24.9599 26.7517 27.4284 28.4619 31.521 28.4619H38.7686C44.4965 28.4586 48.255 27.6702 55.1188 22.6852H55.8826C56.0347 26.2357 57.2277 28.4619 62.1176 28.4619C63.8593 28.4619 70.1202 27.6493 70.884 25.8442C71.7397 27.3482 73.5429 28.6118 76.5693 28.6118C81.0314 28.6118 83.4461 25.7836 83.4461 22.1427C83.4461 17.8402 80.9092 14.8609 77.2726 14.8609H77.2738ZM36.5352 28.388H36.5398L36.6058 28.4056L36.5343 28.388H36.5352ZM76.8157 23.586C74.6763 23.586 73.4231 23.0446 72.8418 22.4724C73.6673 20.6673 75.1648 19.7941 76.8762 19.7941C78.7409 19.7941 80.1767 20.9673 80.1767 22.1713C80.1767 23.0137 78.8632 23.5849 76.8145 23.5849L76.8157 23.586Z" fill="#2D2D2D"/>
<path id="Vector_6" d="M18.3481 42.0021V47.7228H15.3185V42.1533C15.3185 40.6239 14.801 39.8874 13.7079 39.8874C12.5386 39.8874 11.7523 40.7178 11.0613 42.4356V47.7216H8.03161V42.1521C8.03161 40.6227 7.57128 39.8862 6.51623 39.8862C5.32676 39.8862 4.48339 40.7166 3.77442 42.4344V47.7204H0.743652V37.6578H3.77329V39.3009C4.65587 38.0547 5.84421 37.3944 7.45481 37.3944C9.0654 37.3944 10.2358 38.0922 10.7533 39.7353C11.6549 38.187 12.8242 37.3944 14.5882 37.3944C16.8126 37.3944 18.347 38.6964 18.347 42.0012L18.3481 42.0021Z" fill="#2D2D2D"/>
<path id="Vector_7" d="M28.8933 37.6599H31.9228V47.7228H28.8933V46.0611C28.069 47.2695 26.8985 47.9676 25.3843 47.9676C22.8149 47.9676 20.3408 46.1736 20.3408 42.6813C20.3408 39.1893 22.6996 37.3578 25.3843 37.3578C26.8795 37.3578 28.0499 37.9059 28.8933 39.0009V37.6599ZM28.8933 42.6441C28.3378 40.7751 27.2256 39.831 25.96 39.831C24.598 39.831 23.5441 40.8312 23.5441 42.6441C23.5441 44.4567 24.6182 45.4944 25.979 45.4944C27.3398 45.4944 28.3949 44.343 28.8933 42.6441Z" fill="#2D2D2D"/>
<path id="Vector_8" d="M45.1356 41.9073V47.7228H42.1062V42.0597C42.1062 40.5303 41.6268 39.8511 40.4371 39.8511C39.2477 39.8511 38.3081 40.6626 37.561 42.3804V47.7228H34.5312V34.4502H37.561V39.3207C38.5006 38.0745 39.7472 37.3755 41.2426 37.3755C43.6204 37.3755 45.1356 38.5653 45.1356 41.9064V41.9073Z" fill="#2D2D2D"/>
<path id="Vector_9" d="M55.682 37.6602H58.7117V47.7228H55.682V46.0611C54.8576 47.2695 53.6871 47.9676 52.1729 47.9676C49.6037 47.9676 47.1294 46.1736 47.1294 42.6816C47.1294 39.1893 49.4881 37.3578 52.1729 37.3578C53.6683 37.3578 54.8385 37.9059 55.682 39.0009V37.6602ZM55.682 42.6441C55.1265 40.7751 54.0141 39.831 52.7487 39.831C51.3865 39.831 50.3328 40.8312 50.3328 42.6441C50.3328 44.4567 51.4069 45.4944 52.7675 45.4944C54.1285 45.4944 55.1834 44.343 55.682 42.6441Z" fill="#2D2D2D"/>
<path id="Vector_10" d="M61.3184 47.7228V34.4502H64.3481V47.7228H61.3184Z" fill="#2D2D2D"/>
<path id="Vector_11" d="M66.9556 47.7228V34.4502H69.9853V47.7228H66.9556Z" fill="#2D2D2D"/>
<path id="Vector_12" d="M80.0916 37.6602H83.4472L76.6409 52.4124H73.4186L75.7953 47.7414L71.481 37.6602H75.0281L77.4248 44.5131L80.0904 37.6602H80.0916Z" fill="#2D2D2D"/>
</g>
<defs>
<clipPath id="clip0_0_5187">
<rect width="167" height="60" fill="white" transform="translate(0.511719)"/>
</clipPath>
</defs>
</svg>
