<svg width="16" height="16" viewBox="0 0 16 16" fill="none" xmlns="http://www.w3.org/2000/svg">
<g id="Group 56">
<path id="Vector" d="M5.02295 13.8258H2.28885C2.10757 13.8258 1.93371 13.7537 1.80553 13.6256C1.67734 13.4974 1.60533 13.3235 1.60533 13.1422V10.4081C1.60533 10.2269 1.53332 10.053 1.40513 9.92481C1.27694 9.79662 1.10309 9.72461 0.921805 9.72461C0.740523 9.72461 0.566666 9.79662 0.438481 9.92481C0.310295 10.053 0.238281 10.2269 0.238281 10.4081V13.1422C0.238281 13.6861 0.454323 14.2076 0.83888 14.5922C1.22344 14.9768 1.74501 15.1928 2.28885 15.1928H5.02295C5.20423 15.1928 5.37809 15.1208 5.50627 14.9926C5.63446 14.8644 5.70647 14.6906 5.70647 14.5093C5.70647 14.328 5.63446 14.1541 5.50627 14.026C5.37809 13.8978 5.20423 13.8258 5.02295 13.8258ZM14.5923 9.72461C14.411 9.72461 14.2371 9.79662 14.109 9.92481C13.9808 10.053 13.9088 10.2269 13.9088 10.4081V13.1422C13.9088 13.3235 13.8367 13.4974 13.7086 13.6256C13.5804 13.7537 13.4065 13.8258 13.2252 13.8258H10.4911C10.3099 13.8258 10.136 13.8978 10.0078 14.026C9.87963 14.1541 9.80762 14.328 9.80762 14.5093C9.80762 14.6906 9.87963 14.8644 10.0078 14.9926C10.136 15.1208 10.3099 15.1928 10.4911 15.1928H13.2252C13.7691 15.1928 14.2907 14.9768 14.6752 14.5922C15.0598 14.2076 15.2758 13.6861 15.2758 13.1422V10.4081C15.2758 10.2269 15.2038 10.053 15.0756 9.92481C14.9474 9.79662 14.7736 9.72461 14.5923 9.72461ZM13.2252 0.155273H10.4911C10.3099 0.155273 10.136 0.227287 10.0078 0.355473C9.87963 0.483659 9.80762 0.657516 9.80762 0.838798C9.80762 1.02008 9.87963 1.19394 10.0078 1.32212C10.136 1.45031 10.3099 1.52232 10.4911 1.52232H13.2252C13.4065 1.52232 13.5804 1.59434 13.7086 1.72252C13.8367 1.85071 13.9088 2.02456 13.9088 2.20585V4.93994C13.9088 5.12122 13.9808 5.29508 14.109 5.42327C14.2371 5.55145 14.411 5.62347 14.5923 5.62347C14.7736 5.62347 14.9474 5.55145 15.0756 5.42327C15.2038 5.29508 15.2758 5.12122 15.2758 4.93994V2.20585C15.2758 1.662 15.0598 1.14043 14.6752 0.755872C14.2907 0.371315 13.7691 0.155273 13.2252 0.155273ZM0.921805 5.62347C1.10309 5.62347 1.27694 5.55145 1.40513 5.42327C1.53332 5.29508 1.60533 5.12122 1.60533 4.93994V2.20585C1.60533 2.02456 1.67734 1.85071 1.80553 1.72252C1.93371 1.59434 2.10757 1.52232 2.28885 1.52232H5.02295C5.20423 1.52232 5.37809 1.45031 5.50627 1.32212C5.63446 1.19394 5.70647 1.02008 5.70647 0.838798C5.70647 0.657516 5.63446 0.483659 5.50627 0.355473C5.37809 0.227287 5.20423 0.155273 5.02295 0.155273H2.28885C1.74501 0.155273 1.22344 0.371315 0.83888 0.755872C0.454323 1.14043 0.238281 1.662 0.238281 2.20585V4.93994C0.238281 5.12122 0.310295 5.29508 0.438481 5.42327C0.566666 5.55145 0.740523 5.62347 0.921805 5.62347ZM6.39 2.88937H3.6559C3.47462 2.88937 3.30076 2.96138 3.17258 3.08957C3.04439 3.21776 2.97238 3.39161 2.97238 3.57289V6.30699C2.97238 6.48827 3.04439 6.66213 3.17258 6.79031C3.30076 6.9185 3.47462 6.99051 3.6559 6.99051H6.39C6.57128 6.99051 6.74514 6.9185 6.87332 6.79031C7.00151 6.66213 7.07352 6.48827 7.07352 6.30699V3.57289C7.07352 3.39161 7.00151 3.21776 6.87332 3.08957C6.74514 2.96138 6.57128 2.88937 6.39 2.88937ZM5.70647 5.62347H4.33943V4.25642H5.70647V5.62347ZM9.12409 6.99051H11.8582C12.0395 6.99051 12.2133 6.9185 12.3415 6.79031C12.4697 6.66213 12.5417 6.48827 12.5417 6.30699V3.57289C12.5417 3.39161 12.4697 3.21776 12.3415 3.08957C12.2133 2.96138 12.0395 2.88937 11.8582 2.88937H9.12409C8.94281 2.88937 8.76896 2.96138 8.64077 3.08957C8.51258 3.21776 8.44057 3.39161 8.44057 3.57289V6.30699C8.44057 6.48827 8.51258 6.66213 8.64077 6.79031C8.76896 6.9185 8.94281 6.99051 9.12409 6.99051ZM9.80762 4.25642H11.1747V5.62347H9.80762V4.25642ZM6.39 8.35756H3.6559C3.47462 8.35756 3.30076 8.42958 3.17258 8.55776C3.04439 8.68595 2.97238 8.8598 2.97238 9.04109V11.7752C2.97238 11.9565 3.04439 12.1303 3.17258 12.2585C3.30076 12.3867 3.47462 12.4587 3.6559 12.4587H6.39C6.57128 12.4587 6.74514 12.3867 6.87332 12.2585C7.00151 12.1303 7.07352 11.9565 7.07352 11.7752V9.04109C7.07352 8.8598 7.00151 8.68595 6.87332 8.55776C6.74514 8.42958 6.57128 8.35756 6.39 8.35756ZM5.70647 11.0917H4.33943V9.72461H5.70647V11.0917ZM9.12409 10.4081C9.30538 10.4081 9.47923 10.3361 9.60742 10.2079C9.7356 10.0797 9.80762 9.90589 9.80762 9.72461C9.9889 9.72461 10.1628 9.6526 10.2909 9.52441C10.4191 9.39622 10.4911 9.22237 10.4911 9.04109C10.4911 8.8598 10.4191 8.68595 10.2909 8.55776C10.1628 8.42958 9.9889 8.35756 9.80762 8.35756H9.12409C8.94281 8.35756 8.76896 8.42958 8.64077 8.55776C8.51258 8.68595 8.44057 8.8598 8.44057 9.04109V9.72461C8.44057 9.90589 8.51258 10.0797 8.64077 10.2079C8.76896 10.3361 8.94281 10.4081 9.12409 10.4081ZM11.8582 8.35756C11.6769 8.35756 11.5031 8.42958 11.3749 8.55776C11.2467 8.68595 11.1747 8.8598 11.1747 9.04109V11.0917C10.9934 11.0917 10.8195 11.1637 10.6913 11.2919C10.5632 11.42 10.4911 11.5939 10.4911 11.7752C10.4911 11.9565 10.5632 12.1303 10.6913 12.2585C10.8195 12.3867 10.9934 12.4587 11.1747 12.4587H11.8582C12.0395 12.4587 12.2133 12.3867 12.3415 12.2585C12.4697 12.1303 12.5417 11.9565 12.5417 11.7752V9.04109C12.5417 8.8598 12.4697 8.68595 12.3415 8.55776C12.2133 8.42958 12.0395 8.35756 11.8582 8.35756ZM9.12409 11.0917C8.98891 11.0917 8.85675 11.1317 8.74435 11.2069C8.63194 11.282 8.54433 11.3887 8.4926 11.5136C8.44087 11.6385 8.42733 11.7759 8.4537 11.9085C8.48008 12.0411 8.54518 12.1629 8.64077 12.2585C8.73636 12.3541 8.85815 12.4192 8.99075 12.4456C9.12334 12.4719 9.26077 12.4584 9.38567 12.4067C9.51057 12.3549 9.61732 12.2673 9.69242 12.1549C9.76753 12.0425 9.80762 11.9104 9.80762 11.7752C9.80762 11.5939 9.7356 11.42 9.60742 11.2919C9.47923 11.1637 9.30538 11.0917 9.12409 11.0917Z" fill="#A7A7A7"/>
</g>
</svg>
