<svg width="31" height="30" viewBox="0 0 31 30" fill="none" xmlns="http://www.w3.org/2000/svg">
<g id="box">
<g id="Group 24">
<path id="Vector" d="M8.4248 17.5H10.9248C11.27 17.5 11.5498 17.2202 11.5498 16.875C11.5498 16.5298 11.27 16.25 10.9248 16.25H8.4248C8.07965 16.25 7.7998 16.5298 7.7998 16.875C7.7998 17.2202 8.07965 17.5 8.4248 17.5ZM24.6748 2.5H5.9248C4.19957 2.5016 2.80141 3.89977 2.7998 5.625V24.375C2.80141 26.1002 4.19957 27.4984 5.9248 27.5H24.6748C26.4 27.4984 27.7982 26.1002 27.7998 24.375V5.625C27.7982 3.89977 26.4 2.5016 24.6748 2.5ZM17.7998 3.75V9.57886L15.5989 8.39478C15.4138 8.29468 15.1907 8.29468 15.0056 8.39478L12.8035 9.58008L12.7998 3.75H17.7998ZM26.5498 24.375C26.5487 25.4101 25.7099 26.2489 24.6748 26.25H5.9248C4.88972 26.2489 4.05095 25.4101 4.0498 24.375V5.625C4.05095 4.58992 4.88972 3.75114 5.9248 3.75H11.5502L11.5547 10.625C11.5547 10.7285 11.5804 10.8303 11.6294 10.9214C11.7931 11.2254 12.1723 11.3393 12.4763 11.1755L15.3023 9.65454L18.1282 11.1755C18.2193 11.2245 18.3213 11.2501 18.4248 11.25H18.4288C18.7729 11.2489 19.0509 10.9691 19.0498 10.625V3.75H24.6748C25.7099 3.75114 26.5487 4.58992 26.5498 5.625V24.375ZM15.9248 21.25H8.4248C8.07965 21.25 7.7998 21.5298 7.7998 21.875C7.7998 22.2202 8.07965 22.5 8.4248 22.5H15.9248C16.27 22.5 16.5498 22.2202 16.5498 21.875C16.5498 21.5298 16.27 21.25 15.9248 21.25Z" fill="#003C47"/>
</g>
</g>
</svg>
