<svg width="31" height="30" viewBox="0 0 31 30" fill="none" xmlns="http://www.w3.org/2000/svg">
<g id="cup">
<path id="Vector" d="M27.2578 5H22.8828V3.125C22.8828 3.12477 22.8828 3.12531 22.8828 3.125C22.8826 2.78008 22.6028 2.49977 22.2578 2.5H8.50781C8.50758 2.5 8.50812 2.5 8.50781 2.5C8.16289 2.50023 7.88258 2.78 7.88281 3.125V5H3.50781C3.50758 5 3.50812 5 3.50781 5C3.16289 5.00023 2.88258 5.28 2.88281 5.625V9.375C2.88617 12.4802 5.40265 14.9966 8.50781 15H9.75781C9.77299 15 9.78566 14.9924 9.80054 14.9914C11.0432 16.3799 12.7904 17.3031 14.7578 17.4678V21.25H13.5078C11.7826 21.2516 10.3844 22.6498 10.3828 24.375V26.875C10.3828 26.8748 10.3828 26.8752 10.3828 26.875C10.383 27.22 10.6628 27.5002 11.0078 27.5H19.7578C19.7575 27.5 19.758 27.5 19.7578 27.5C20.1027 27.4998 20.383 27.22 20.3828 26.875V24.375C20.3812 22.6498 18.983 21.2516 17.2578 21.25H16.0078V17.4678C17.9752 17.3031 19.7224 16.3799 20.9651 14.9914C20.98 14.9924 20.9926 15 21.0078 15H22.2578C25.363 14.9966 27.8795 12.4802 27.8828 9.375V5.625C27.8828 5.62477 27.8828 5.62531 27.8828 5.625C27.8826 5.28008 27.6028 4.99977 27.2578 5ZM8.50781 13.75C6.0928 13.7471 4.13571 11.79 4.13281 9.375V6.25H7.88281V10C7.88426 11.3679 8.25742 12.646 8.8979 13.75H8.50781ZM17.2578 22.5C18.2929 22.5011 19.1317 23.3399 19.1328 24.375V26.25H11.6328V24.375C11.634 23.3399 12.4727 22.5011 13.5078 22.5H15.3828C15.3825 22.5 15.383 22.5 15.3828 22.5H17.2578ZM21.6328 10C21.6328 13.4518 18.8346 16.25 15.3828 16.25C11.931 16.25 9.13281 13.4518 9.13281 10V3.75H21.6328V10ZM26.6328 9.375C26.6299 11.79 24.6728 13.7471 22.2578 13.75H21.8677C22.5082 12.646 22.8814 11.3679 22.8828 10V6.25H26.6328V9.375Z" fill="#003C47"/>
</g>
</svg>
