<svg width="36" height="36" viewBox="0 0 36 36" fill="none" xmlns="http://www.w3.org/2000/svg">
<g id="Group 23">
<path id="Vector" fill-rule="evenodd" clip-rule="evenodd" d="M12.654 11.6726L11.5868 6.8714C11.332 5.72441 11.7136 4.52821 12.5862 3.74095C13.4598 2.9537 14.6888 2.69674 15.8041 3.0685C15.8041 3.0685 15.8052 3.0685 15.8063 3.0696C17.4792 3.62724 19.2877 3.62724 20.9606 3.0696C20.9617 3.0685 20.9628 3.0685 20.9628 3.0685C22.0781 2.69674 23.3071 2.9537 24.1807 3.74095C25.0533 4.52821 25.4349 5.72441 25.1801 6.8714L24.1129 11.6726H24.9439C25.5475 11.6726 26.0373 12.1624 26.0373 12.766C26.0373 13.3696 25.5475 13.8594 24.9439 13.8594H24.8204L27.5047 17.8854C29.3526 20.6572 29.7659 24.1441 28.6167 27.2712C27.4675 30.3973 24.8947 32.7864 21.691 33.7016C21.691 33.7016 21.691 33.7016 21.6899 33.7027C19.5293 34.3194 17.2375 34.3194 15.077 33.7027C15.0759 33.7016 15.0759 33.7016 15.0759 33.7016C11.8722 32.7864 9.29935 30.3973 8.15017 27.2712C7.001 24.1441 7.4143 20.6572 9.26217 17.8854L11.9465 13.8594H11.823C11.2194 13.8594 10.7295 13.3696 10.7295 12.766C10.7295 12.1624 11.2194 11.6726 11.823 11.6726H12.654ZM22.1929 13.8594H14.574L11.0816 19.0991C9.62082 21.2892 9.29498 24.0457 10.2025 26.5168C11.1111 28.9868 13.1449 30.8762 15.6761 31.599C17.4453 32.1052 19.3205 32.1052 21.0896 31.599C23.6209 30.8762 25.6557 28.9868 26.5644 26.5168C27.4719 24.0457 27.1461 21.2892 25.6853 19.0991L22.1929 13.8594ZM17.29 18.1871C17.2977 17.5901 17.7853 17.109 18.3834 17.109C18.987 17.109 19.4769 17.5989 19.4769 18.2025V18.2134C20.1099 18.361 20.7157 18.6169 21.1968 18.9525C21.691 19.2991 21.8124 19.9803 21.4669 20.4757C21.1213 20.9699 20.4391 21.0913 19.9437 20.7457C19.4222 20.3816 18.6404 20.1859 17.9876 20.2767C17.6213 20.328 17.29 20.503 17.29 20.9426C17.29 21.041 17.3622 21.0858 17.4355 21.1284C17.5546 21.1973 17.6913 21.2498 17.8367 21.299C18.3069 21.4565 18.847 21.5603 19.3369 21.7036C20.6895 22.0983 21.6637 22.8134 21.6637 24.2228C21.6637 25.6606 20.8884 26.4873 19.8147 26.8667C19.7065 26.9049 19.5928 26.9377 19.4769 26.9651C19.4681 27.561 18.9815 28.0432 18.3834 28.0432C17.7799 28.0432 17.29 27.5522 17.29 26.9498V26.9312C16.6613 26.7901 16.0621 26.5452 15.5854 26.2226C15.0846 25.8859 14.9523 25.2047 15.2902 24.705C15.628 24.2042 16.3081 24.073 16.8078 24.4098C17.3349 24.7651 18.1254 24.9641 18.7836 24.8756C19.1466 24.8264 19.4769 24.6591 19.4769 24.2228C19.4769 24.1255 19.4047 24.0796 19.3314 24.0369C19.2122 23.9691 19.0756 23.9155 18.9301 23.8674C18.46 23.71 17.9198 23.605 17.43 23.4618C16.0774 23.0671 15.1032 22.352 15.1032 20.9426C15.1032 20.2318 15.3109 19.6742 15.6335 19.2401C16.0249 18.712 16.6055 18.3577 17.29 18.1871ZM21.8802 11.642L23.0458 6.39686C23.13 6.01854 23.0031 5.62491 22.7155 5.36467C22.428 5.10554 22.0223 5.02025 21.6549 5.14271C21.6538 5.1438 21.6527 5.1438 21.6527 5.1438C19.5304 5.85124 17.2365 5.85124 15.1141 5.1438C15.1141 5.1438 15.113 5.1438 15.1119 5.14271C14.7446 5.02025 14.3389 5.10554 14.0513 5.36467C13.7638 5.62491 13.6369 6.01854 13.7211 6.39686L14.8867 11.642H21.8802Z" fill="#003C47"/>
</g>
</svg>
