<svg width="46" height="45" viewBox="0 0 46 45" fill="none" xmlns="http://www.w3.org/2000/svg">
<g id="User">
<path id="Vector" d="M3.82195 35.1625V43.3817H41.9189V35.1625C41.7162 33.6154 41.0562 32.1596 40.0199 30.9737L39.8939 30.8329C39.0546 29.9322 38.0091 29.2386 36.8429 28.8089C34.2329 27.8673 30.5429 26.6441 28.6529 26.0281L27.5729 25.6761H18.1589L17.0699 26.0369C15.2699 26.6353 11.5259 27.8761 8.90694 28.8265C7.54269 29.3191 6.345 30.1721 5.44722 31.2908C4.54944 32.4094 3.9868 33.7498 3.82195 35.1625Z" fill="#69B0EE"/>
<path id="Vector_2" d="M27.6182 24.1625V27.7265C27.6182 28.1494 27.533 28.5683 27.3674 28.959C27.2019 29.3498 26.9593 29.7048 26.6534 30.0039C26.3475 30.303 25.9844 30.5402 25.5847 30.7021C25.1851 30.864 24.7567 30.9473 24.3242 30.9473H21.4172C20.9846 30.9473 20.5563 30.864 20.1566 30.7021C19.757 30.5402 19.3938 30.303 19.088 30.0039C18.7821 29.7048 18.5394 29.3498 18.3739 28.959C18.2084 28.5683 18.1232 28.1494 18.1232 27.7265V24.1625H27.6182Z" fill="#EAB54E"/>
<path id="Vector_3" d="M30.4889 15.2922C30.4889 15.2922 32.0009 14.2362 32.5589 15.2218C33.1169 16.2074 32.1629 19.4722 30.4889 19.4722M15.2339 15.2922C15.2339 15.2922 13.7219 14.2362 13.1639 15.2218C12.6059 16.2074 13.5599 19.4722 15.2339 19.4722" fill="#F2C55A"/>
<path id="Vector_4" d="M14.1992 12.3705C14.1252 14.5376 14.4296 16.7011 15.0992 18.7681C15.0992 18.7681 15.5492 22.2617 16.7822 23.0449C16.7822 23.0449 19.1762 26.1777 22.8662 26.1777C26.5562 26.1777 28.9502 23.0449 28.9502 23.0449C30.1742 22.2617 30.6692 18.7417 30.6692 18.7417C31.3388 16.6747 31.6432 14.5112 31.5692 12.3441C26.6552 3.14814 20.8772 3.19214 14.1992 12.3705Z" fill="#F6C863"/>
<path id="Vector_5" d="M14.1813 16.577H14.6853C14.5729 15.3205 14.6212 14.0553 14.8293 12.8106C14.9711 11.7744 15.5001 10.8262 16.3144 10.1487C17.1286 9.47111 18.1705 9.11217 19.2393 9.14097C20.4898 9.20162 21.7228 9.45403 22.8933 9.88897C24.0607 9.45465 25.2907 9.20225 26.5383 9.14097C27.605 9.11633 28.6436 9.47697 29.4555 10.1539C30.2674 10.8309 30.7957 11.7767 30.9393 12.8106C31.1668 14.0534 31.2122 15.3216 31.0743 16.577H31.5873C31.5873 16.577 33.2343 12.1154 32.7393 9.37857C32.3433 7.03777 31.7493 5.32177 30.4533 3.94897C30.3432 3.8281 30.1989 3.74184 30.0387 3.70112C29.8785 3.66039 29.7096 3.66702 29.5533 3.72017C29.4032 3.77598 29.2407 3.79153 29.0824 3.76523C28.9242 3.73893 28.776 3.67172 28.6533 3.57057C27.2825 2.33704 25.5758 1.51793 23.7393 1.21217C22.2998 1.04812 20.8411 1.19225 19.4643 1.63457C18.2687 1.95828 17.1433 2.49205 16.1433 3.20977C14.2533 4.68817 13.5333 6.59777 13.0653 9.36977C12.5973 12.1418 14.1813 16.577 14.1813 16.577Z" fill="#575B6D"/>
<path id="Vector_6" d="M17.0515 26.1778C17.0515 27.6831 17.6631 29.1268 18.7518 30.1913C19.8404 31.2558 21.3169 31.8538 22.8565 31.8538C24.3961 31.8538 25.8726 31.2558 26.9613 30.1913C28.0499 29.1268 28.6615 27.6831 28.6615 26.1778V26.0282L27.6175 25.685V26.1778C27.5643 27.3716 27.0418 28.4993 26.159 29.3257C25.2762 30.1521 24.1012 30.6134 22.879 30.6134C21.6569 30.6134 20.4819 30.1521 19.5991 29.3257C18.7162 28.4993 18.1938 27.3716 18.1405 26.1778V25.6674L17.0875 26.0194L17.0515 26.1778ZM35.5915 43.3642L35.9875 43.373L36.3925 43.3818V43.373L36.4825 34.9074L40.0195 30.9738L39.8935 30.833L36.0595 34.6522L35.9965 34.7138L35.9875 34.8194L35.5915 43.3642ZM10.1305 43.3642L9.73453 43.373L9.32953 43.3818V43.373L9.23053 34.9074L5.70253 30.9738L5.82853 30.833L9.66253 34.6522L9.72553 34.7138L9.73453 34.8194L10.1305 43.3642Z" fill="#419BE9"/>
</g>
</svg>
