<svg width="23" height="21" viewBox="0 0 23 21" fill="none" xmlns="http://www.w3.org/2000/svg">
<g id="Users" clip-path="url(#clip0_0_255)">
<g id="Group 25">
<g id="Group">
<path id="Vector" d="M6.70866 19.5332V17.5332C6.70866 16.4723 7.11253 15.4549 7.83142 14.7048C8.55031 13.9546 9.52533 13.5332 10.542 13.5332H18.2087C19.2253 13.5332 20.2003 13.9546 20.9192 14.7048C21.6381 15.4549 22.042 16.4723 22.042 17.5332V19.5332" stroke="#003C47" stroke-width="2" stroke-linecap="round" stroke-linejoin="round"/>
<path id="Vector_2" d="M14.3757 9.5332C12.2586 9.5332 10.5423 7.74234 10.5423 5.5332C10.5423 3.32406 12.2586 1.5332 14.3757 1.5332C16.4927 1.5332 18.209 3.32406 18.209 5.5332C18.209 7.74234 16.4927 9.5332 14.3757 9.5332Z" stroke="#003C47" stroke-width="2" stroke-linecap="round" stroke-linejoin="round"/>
<path id="Vector_3" d="M0.958659 19.5332V17.5332C0.959292 16.6469 1.24198 15.786 1.76235 15.0855C2.28272 14.3851 3.01128 13.8848 3.83366 13.6632M7.66699 1.66321C6.84243 1.88351 6.11158 2.38391 5.58967 3.08552C5.06776 3.78713 4.78448 4.65004 4.78448 5.53821C4.78448 6.42638 5.06776 7.28929 5.58967 7.9909C6.11158 8.69251 6.84243 9.19291 7.66699 9.41321" stroke="#003C47" stroke-width="2" stroke-linecap="round" stroke-linejoin="round"/>
</g>
</g>
</g>
<defs>
<clipPath id="clip0_0_255">
<rect width="23" height="20" fill="white" transform="matrix(-1 0 0 1 23 0.533203)"/>
</clipPath>
</defs>
</svg>
